<?xml version="1.0" standalone="no"?>
<!DOCTYPE svg PUBLIC "-//W3C//DTD SVG 20010904//EN"
 "http://www.w3.org/TR/2001/REC-SVG-20010904/DTD/svg10.dtd">
<svg version="1.0" xmlns="http://www.w3.org/2000/svg"
 width="199.000000pt" height="199.000000pt" viewBox="0 0 199.000000 199.000000"
 preserveAspectRatio="xMidYMid meet">
<metadata>
Created by potrace 1.11, written by Peter Selinger 2001-2013
</metadata>
<g transform="translate(0.000000,199.000000) scale(0.100000,-0.100000)"
fill="#000000" stroke="none">
<path d="M1425 1440 c-82 -17 -279 -79 -350 -110 -185 -81 -245 -111 -350
-175 -181 -111 -199 -126 -200 -169 l-1 -36 25 17 c14 9 44 27 66 39 l40 23
-3 -140 -4 -139 24 3 c22 4 23 8 22 86 0 78 1 81 20 74 12 -4 44 -7 71 -7 l50
-1 1 -75 c1 -87 14 -75 -160 -136 -228 -79 -415 -97 -430 -41 -11 42 33 97
176 223 l35 31 -12 67 c-14 74 -33 102 -79 114 -69 18 -128 -17 -141 -85 -3
-20 -6 -90 -5 -157 1 -67 -3 -138 -8 -158 -8 -32 -7 -42 9 -63 28 -34 78 -44
169 -32 111 15 296 76 445 146 74 35 98 43 91 32 -7 -11 22 -23 34 -16 5 3 9
45 9 93 -1 48 0 107 1 132 l1 45 44 -95 c82 -173 99 -195 132 -174 16 10 18
30 18 173 1 159 1 161 -21 161 -21 0 -22 -4 -22 -97 1 -64 -3 -98 -11 -101 -6
-2 -11 -8 -11 -13 0 -6 4 -8 9 -5 13 8 21 -18 11 -35 -7 -10 -11 -8 -18 11
-18 46 -99 209 -112 225 -18 22 -49 18 -59 -7 -4 -13 -7 -80 -7 -150 1 -71 -2
-128 -5 -128 -4 0 -14 -2 -22 -5 -11 -5 -14 13 -14 104 0 130 -18 180 -71 195
-40 11 -40 18 1 37 17 8 88 45 157 80 350 183 665 266 696 184 7 -19 -27 -89
-66 -135 -25 -28 -36 -34 -64 -32 -42 3 -68 -20 -64 -57 3 -29 39 -52 69 -44
17 5 33 32 34 59 0 5 12 22 25 36 60 61 84 94 95 132 14 51 11 66 -21 90 -35
25 -145 28 -249 6z m-1046 -416 c27 -34 26 -50 -4 -79 -17 -17 -35 -25 -60
-25 -32 0 -36 -3 -33 -22 2 -19 8 -22 31 -20 15 2 27 1 27 -2 0 -9 -70 -79
-71 -70 -1 5 -1 54 -1 109 0 90 2 101 22 117 32 26 65 22 89 -8z m434 8 c9 -9
18 -32 22 -50 l5 -32 -65 0 c-39 0 -65 -4 -65 -11 0 -5 -4 -8 -9 -5 -13 8 -1
78 17 99 20 22 74 22 95 -1z"/>
<path d="M1455 1110 c-4 -6 -18 -15 -32 -21 -13 -5 -21 -13 -18 -19 3 -5 0 -8
-7 -5 -15 6 -82 -48 -72 -58 4 -3 21 5 39 18 17 14 35 25 38 25 4 0 7 -53 6
-117 l0 -118 -67 135 c-52 105 -72 136 -89 138 -37 5 -44 -26 -41 -185 3 -140
4 -148 23 -148 19 0 20 7 21 95 2 122 2 120 17 120 7 0 35 -47 62 -105 38 -83
54 -107 73 -112 13 -3 28 -1 34 5 6 6 11 72 11 169 0 89 4 164 10 171 5 7 7
15 4 18 -3 3 -8 0 -12 -6z m-189 -127 c-11 -11 -17 4 -9 23 7 18 8 18 11 1 2
-10 1 -21 -2 -24z"/>
<path d="M467 1083 c-2 -5 -3 -64 -2 -133 2 -166 14 -187 116 -197 39 -4 50
-1 55 12 9 22 2 26 -46 30 -45 4 -82 29 -79 54 1 9 1 67 0 129 -1 104 -2 112
-20 112 -11 0 -22 -3 -24 -7z"/>
<path d="M1502 923 c3 -160 4 -168 23 -168 19 0 20 7 20 165 0 164 0 165 -23
168 l-22 3 2 -168z"/>
<path d="M1570 1070 c0 -21 7 -24 53 -21 15 0 28 -4 28 -11 1 -7 3 -67 4 -133
3 -162 2 -155 25 -155 16 0 20 7 20 33 1 17 2 84 3 147 l2 115 40 0 c33 1 40
4 40 20 0 18 -9 20 -107 23 -103 3 -108 2 -108 -18z"/>
<path d="M1180 930 c-8 -5 -11 -12 -7 -16 4 -4 13 -2 19 4 15 15 7 24 -12 12z"/>
<path d="M1000 830 c-19 -11 -29 -19 -22 -20 14 0 72 28 72 35 0 9 -15 4 -50
-15z"/>
</g>
</svg>
